<mxfile host="app.diagrams.net" modified="2021-01-10T18:51:23.796Z" agent="5.0 (Windows NT 6.1; Win64; x64) AppleWebKit/537.36 (KHTML, like Gecko) Chrome/87.0.4280.88 Safari/537.36" etag="DHjuuhbUz-HARJtnums-" version="14.1.9" type="github">
  <diagram id="K_S71baaIgRg8uVP2SF8" name="Page-1">
    <mxGraphModel dx="1108" dy="482" grid="1" gridSize="10" guides="1" tooltips="1" connect="1" arrows="1" fold="1" page="1" pageScale="1" pageWidth="850" pageHeight="1100" math="0" shadow="0">
      <root>
        <mxCell id="0" />
        <mxCell id="1" parent="0" />
        <mxCell id="VbJh9CMP3E0E9dF7GqX6-1" value="&lt;br&gt;Update Details&amp;nbsp;&lt;br&gt;&lt;br&gt;&lt;div style=&quot;text-align: right&quot;&gt;&lt;span&gt;&lt;b&gt;0.2.2&amp;nbsp;&lt;/b&gt;&lt;/span&gt;&lt;/div&gt;" style="ellipse;whiteSpace=wrap;html=1;" vertex="1" parent="1">
          <mxGeometry x="160" y="80" width="120" height="80" as="geometry" />
        </mxCell>
        <mxCell id="VbJh9CMP3E0E9dF7GqX6-2" value="&lt;br&gt;Enter User Details&amp;nbsp;&lt;br&gt;&lt;br&gt;&lt;div style=&quot;text-align: right&quot;&gt;&lt;span&gt;&lt;b&gt;0.2.2&amp;nbsp;&amp;nbsp;&lt;/b&gt;&lt;/span&gt;&lt;/div&gt;" style="ellipse;whiteSpace=wrap;html=1;" vertex="1" parent="1">
          <mxGeometry x="320" y="200" width="120" height="80" as="geometry" />
        </mxCell>
        <mxCell id="VbJh9CMP3E0E9dF7GqX6-3" value="" style="endArrow=classic;html=1;exitX=1;exitY=0.5;exitDx=0;exitDy=0;entryX=0.25;entryY=1;entryDx=0;entryDy=0;" edge="1" parent="1" source="VbJh9CMP3E0E9dF7GqX6-1" target="VbJh9CMP3E0E9dF7GqX6-8">
          <mxGeometry width="50" height="50" relative="1" as="geometry">
            <mxPoint x="400" y="250" as="sourcePoint" />
            <mxPoint x="450" y="200" as="targetPoint" />
          </mxGeometry>
        </mxCell>
        <mxCell id="VbJh9CMP3E0E9dF7GqX6-4" value="" style="edgeStyle=orthogonalEdgeStyle;rounded=0;orthogonalLoop=1;jettySize=auto;html=1;" edge="1" parent="1" source="VbJh9CMP3E0E9dF7GqX6-5" target="VbJh9CMP3E0E9dF7GqX6-7">
          <mxGeometry relative="1" as="geometry" />
        </mxCell>
        <mxCell id="VbJh9CMP3E0E9dF7GqX6-5" value="&lt;br&gt;Encoding User Data&lt;br&gt;&lt;br&gt;&lt;div style=&quot;text-align: right&quot;&gt;&lt;span&gt;&lt;b&gt;0.3.1&amp;nbsp; &amp;nbsp;&lt;/b&gt;&lt;/span&gt;&lt;/div&gt;" style="ellipse;whiteSpace=wrap;html=1;" vertex="1" parent="1">
          <mxGeometry x="520" y="200" width="120" height="80" as="geometry" />
        </mxCell>
        <mxCell id="VbJh9CMP3E0E9dF7GqX6-6" value="" style="endArrow=classic;html=1;exitX=1;exitY=0.5;exitDx=0;exitDy=0;entryX=0;entryY=0.5;entryDx=0;entryDy=0;" edge="1" parent="1" source="VbJh9CMP3E0E9dF7GqX6-2" target="VbJh9CMP3E0E9dF7GqX6-5">
          <mxGeometry width="50" height="50" relative="1" as="geometry">
            <mxPoint x="270" y="250" as="sourcePoint" />
            <mxPoint x="320" y="200" as="targetPoint" />
          </mxGeometry>
        </mxCell>
        <mxCell id="VbJh9CMP3E0E9dF7GqX6-39" value="" style="edgeStyle=orthogonalEdgeStyle;rounded=0;orthogonalLoop=1;jettySize=auto;html=1;" edge="1" parent="1" source="VbJh9CMP3E0E9dF7GqX6-7" target="VbJh9CMP3E0E9dF7GqX6-38">
          <mxGeometry relative="1" as="geometry" />
        </mxCell>
        <mxCell id="VbJh9CMP3E0E9dF7GqX6-7" value="&lt;br&gt;Random QR Code Creation&lt;br&gt;&lt;b style=&quot;text-align: right&quot;&gt;&amp;nbsp; &amp;nbsp; &amp;nbsp; &amp;nbsp; &amp;nbsp; &amp;nbsp; &amp;nbsp; &amp;nbsp; &amp;nbsp;0.3.2&amp;nbsp;&lt;/b&gt;" style="ellipse;whiteSpace=wrap;html=1;" vertex="1" parent="1">
          <mxGeometry x="720" y="200" width="120" height="80" as="geometry" />
        </mxCell>
        <mxCell id="VbJh9CMP3E0E9dF7GqX6-8" value="Local Storage" style="shape=partialRectangle;whiteSpace=wrap;html=1;left=0;right=0;fillColor=none;" vertex="1" parent="1">
          <mxGeometry x="320" y="20" width="120" height="20" as="geometry" />
        </mxCell>
        <mxCell id="VbJh9CMP3E0E9dF7GqX6-9" value="" style="endArrow=classic;html=1;entryX=0.5;entryY=1;entryDx=0;entryDy=0;exitX=0;exitY=0;exitDx=0;exitDy=0;" edge="1" parent="1" source="VbJh9CMP3E0E9dF7GqX6-2" target="VbJh9CMP3E0E9dF7GqX6-8">
          <mxGeometry width="50" height="50" relative="1" as="geometry">
            <mxPoint x="380" y="250" as="sourcePoint" />
            <mxPoint x="430" y="200" as="targetPoint" />
          </mxGeometry>
        </mxCell>
        <mxCell id="VbJh9CMP3E0E9dF7GqX6-10" value="" style="endArrow=classic;html=1;exitX=0.5;exitY=1;exitDx=0;exitDy=0;entryX=1;entryY=0;entryDx=0;entryDy=0;" edge="1" parent="1" source="VbJh9CMP3E0E9dF7GqX6-8" target="VbJh9CMP3E0E9dF7GqX6-2">
          <mxGeometry width="50" height="50" relative="1" as="geometry">
            <mxPoint x="400" y="44" as="sourcePoint" />
            <mxPoint x="400" y="190" as="targetPoint" />
          </mxGeometry>
        </mxCell>
        <mxCell id="VbJh9CMP3E0E9dF7GqX6-12" value="&lt;br&gt;View Data&lt;br&gt;&lt;br&gt;&lt;div style=&quot;text-align: right&quot;&gt;&lt;span&gt;&lt;b&gt;0.5.2&lt;/b&gt;&lt;/span&gt;&lt;/div&gt;" style="ellipse;whiteSpace=wrap;html=1;" vertex="1" parent="1">
          <mxGeometry x="680" y="480" width="120" height="80" as="geometry" />
        </mxCell>
        <mxCell id="VbJh9CMP3E0E9dF7GqX6-13" value="Cloud Storage" style="shape=partialRectangle;whiteSpace=wrap;html=1;left=0;right=0;fillColor=none;" vertex="1" parent="1">
          <mxGeometry x="520" y="600" width="120" height="20" as="geometry" />
        </mxCell>
        <mxCell id="VbJh9CMP3E0E9dF7GqX6-20" value="User Data" style="text;html=1;strokeColor=none;fillColor=none;align=center;verticalAlign=middle;whiteSpace=wrap;rounded=0;" vertex="1" parent="1">
          <mxGeometry x="450" y="220" width="60" height="20" as="geometry" />
        </mxCell>
        <mxCell id="VbJh9CMP3E0E9dF7GqX6-21" value="View" style="text;html=1;strokeColor=none;fillColor=none;align=center;verticalAlign=middle;whiteSpace=wrap;rounded=0;" vertex="1" parent="1">
          <mxGeometry x="410" y="120" width="40" height="20" as="geometry" />
        </mxCell>
        <mxCell id="VbJh9CMP3E0E9dF7GqX6-22" value="Save" style="text;html=1;strokeColor=none;fillColor=none;align=center;verticalAlign=middle;whiteSpace=wrap;rounded=0;" vertex="1" parent="1">
          <mxGeometry x="310" y="120" width="40" height="20" as="geometry" />
        </mxCell>
        <mxCell id="VbJh9CMP3E0E9dF7GqX6-32" style="edgeStyle=orthogonalEdgeStyle;rounded=0;orthogonalLoop=1;jettySize=auto;html=1;exitX=1;exitY=0.5;exitDx=0;exitDy=0;" edge="1" parent="1" source="VbJh9CMP3E0E9dF7GqX6-29" target="VbJh9CMP3E0E9dF7GqX6-2">
          <mxGeometry relative="1" as="geometry" />
        </mxCell>
        <mxCell id="VbJh9CMP3E0E9dF7GqX6-29" value="&lt;br&gt;Login / Register&lt;br&gt;&lt;br&gt;&lt;div style=&quot;text-align: right&quot;&gt;&lt;span&gt;&lt;b&gt;0.2.1&amp;nbsp;&lt;/b&gt;&lt;/span&gt;&lt;/div&gt;" style="ellipse;whiteSpace=wrap;html=1;" vertex="1" parent="1">
          <mxGeometry x="120" y="200" width="120" height="80" as="geometry" />
        </mxCell>
        <mxCell id="VbJh9CMP3E0E9dF7GqX6-34" value="" style="endArrow=classic;html=1;entryX=0;entryY=0.5;entryDx=0;entryDy=0;" edge="1" parent="1" target="VbJh9CMP3E0E9dF7GqX6-29">
          <mxGeometry width="50" height="50" relative="1" as="geometry">
            <mxPoint x="10" y="240" as="sourcePoint" />
            <mxPoint x="270" y="190" as="targetPoint" />
          </mxGeometry>
        </mxCell>
        <mxCell id="VbJh9CMP3E0E9dF7GqX6-35" value="Opening App" style="text;html=1;strokeColor=none;fillColor=none;align=center;verticalAlign=middle;whiteSpace=wrap;rounded=0;" vertex="1" parent="1">
          <mxGeometry x="10" y="220" width="110" height="20" as="geometry" />
        </mxCell>
        <mxCell id="VbJh9CMP3E0E9dF7GqX6-36" value="User Data" style="text;html=1;strokeColor=none;fillColor=none;align=center;verticalAlign=middle;whiteSpace=wrap;rounded=0;" vertex="1" parent="1">
          <mxGeometry x="250" y="220" width="60" height="20" as="geometry" />
        </mxCell>
        <mxCell id="VbJh9CMP3E0E9dF7GqX6-41" value="" style="edgeStyle=orthogonalEdgeStyle;rounded=0;orthogonalLoop=1;jettySize=auto;html=1;" edge="1" parent="1" source="VbJh9CMP3E0E9dF7GqX6-38" target="VbJh9CMP3E0E9dF7GqX6-40">
          <mxGeometry relative="1" as="geometry" />
        </mxCell>
        <mxCell id="VbJh9CMP3E0E9dF7GqX6-38" value="&lt;br&gt;Display Generated QR Code&lt;br&gt;&lt;b style=&quot;text-align: right&quot;&gt;&amp;nbsp; &amp;nbsp; &amp;nbsp; &amp;nbsp; &amp;nbsp; &amp;nbsp; &amp;nbsp; &amp;nbsp; &amp;nbsp;0.3.3&amp;nbsp;&lt;/b&gt;" style="ellipse;whiteSpace=wrap;html=1;" vertex="1" parent="1">
          <mxGeometry x="920" y="200" width="120" height="80" as="geometry" />
        </mxCell>
        <mxCell id="VbJh9CMP3E0E9dF7GqX6-43" value="" style="edgeStyle=orthogonalEdgeStyle;rounded=0;orthogonalLoop=1;jettySize=auto;html=1;" edge="1" parent="1" source="VbJh9CMP3E0E9dF7GqX6-40" target="VbJh9CMP3E0E9dF7GqX6-42">
          <mxGeometry relative="1" as="geometry" />
        </mxCell>
        <mxCell id="VbJh9CMP3E0E9dF7GqX6-40" value="&lt;br&gt;Scan QR Code&lt;br&gt;&lt;br&gt;&lt;b style=&quot;text-align: right&quot;&gt;&amp;nbsp; &amp;nbsp; &amp;nbsp; &amp;nbsp; &amp;nbsp; &amp;nbsp; &amp;nbsp; &amp;nbsp; &amp;nbsp;0.4.1&amp;nbsp;&amp;nbsp;&lt;/b&gt;" style="ellipse;whiteSpace=wrap;html=1;" vertex="1" parent="1">
          <mxGeometry x="920" y="360" width="120" height="80" as="geometry" />
        </mxCell>
        <mxCell id="VbJh9CMP3E0E9dF7GqX6-45" value="" style="edgeStyle=orthogonalEdgeStyle;rounded=0;orthogonalLoop=1;jettySize=auto;html=1;" edge="1" parent="1" source="VbJh9CMP3E0E9dF7GqX6-42" target="VbJh9CMP3E0E9dF7GqX6-44">
          <mxGeometry relative="1" as="geometry" />
        </mxCell>
        <mxCell id="VbJh9CMP3E0E9dF7GqX6-42" value="&lt;br&gt;Decoding Scanned QR Code&lt;br&gt;&lt;b style=&quot;text-align: right&quot;&gt;&amp;nbsp; &amp;nbsp; &amp;nbsp; &amp;nbsp; &amp;nbsp; &amp;nbsp; &amp;nbsp; &amp;nbsp; &amp;nbsp;0.4.2&amp;nbsp; &amp;nbsp;&lt;/b&gt;" style="ellipse;whiteSpace=wrap;html=1;" vertex="1" parent="1">
          <mxGeometry x="720" y="360" width="120" height="80" as="geometry" />
        </mxCell>
        <mxCell id="VbJh9CMP3E0E9dF7GqX6-46" style="edgeStyle=orthogonalEdgeStyle;rounded=0;orthogonalLoop=1;jettySize=auto;html=1;exitX=0.5;exitY=1;exitDx=0;exitDy=0;entryX=0.5;entryY=0;entryDx=0;entryDy=0;" edge="1" parent="1" source="VbJh9CMP3E0E9dF7GqX6-44" target="VbJh9CMP3E0E9dF7GqX6-13">
          <mxGeometry relative="1" as="geometry" />
        </mxCell>
        <mxCell id="VbJh9CMP3E0E9dF7GqX6-44" value="&lt;br&gt;Uploading Scanned Data&lt;br&gt;&lt;b style=&quot;text-align: right&quot;&gt;&amp;nbsp; &amp;nbsp; &amp;nbsp; &amp;nbsp; &amp;nbsp; &amp;nbsp; &amp;nbsp; &amp;nbsp; &amp;nbsp;0.5.1&amp;nbsp; &amp;nbsp;&amp;nbsp;&lt;/b&gt;" style="ellipse;whiteSpace=wrap;html=1;" vertex="1" parent="1">
          <mxGeometry x="520" y="360" width="120" height="80" as="geometry" />
        </mxCell>
        <mxCell id="VbJh9CMP3E0E9dF7GqX6-48" value="&lt;br&gt;Selecting Users with same Timestamp&amp;nbsp; of Positive Cases&lt;br&gt;&lt;b style=&quot;text-align: right&quot;&gt;&amp;nbsp; &amp;nbsp; &amp;nbsp; &amp;nbsp; &amp;nbsp; &amp;nbsp; &amp;nbsp; &amp;nbsp; &amp;nbsp;0.5.3&amp;nbsp; &amp;nbsp; &amp;nbsp; &amp;nbsp;&lt;/b&gt;" style="ellipse;whiteSpace=wrap;html=1;" vertex="1" parent="1">
          <mxGeometry x="360" y="480" width="120" height="80" as="geometry" />
        </mxCell>
        <mxCell id="VbJh9CMP3E0E9dF7GqX6-50" value="" style="endArrow=classic;html=1;entryX=0.25;entryY=0;entryDx=0;entryDy=0;exitX=1;exitY=1;exitDx=0;exitDy=0;" edge="1" parent="1" source="VbJh9CMP3E0E9dF7GqX6-48" target="VbJh9CMP3E0E9dF7GqX6-13">
          <mxGeometry width="50" height="50" relative="1" as="geometry">
            <mxPoint x="600" y="430" as="sourcePoint" />
            <mxPoint x="650" y="380" as="targetPoint" />
          </mxGeometry>
        </mxCell>
        <mxCell id="VbJh9CMP3E0E9dF7GqX6-52" value="" style="endArrow=classic;html=1;entryX=0.75;entryY=0;entryDx=0;entryDy=0;exitX=0;exitY=1;exitDx=0;exitDy=0;" edge="1" parent="1" source="VbJh9CMP3E0E9dF7GqX6-12" target="VbJh9CMP3E0E9dF7GqX6-13">
          <mxGeometry width="50" height="50" relative="1" as="geometry">
            <mxPoint x="600" y="430" as="sourcePoint" />
            <mxPoint x="650" y="380" as="targetPoint" />
          </mxGeometry>
        </mxCell>
        <mxCell id="VbJh9CMP3E0E9dF7GqX6-59" value="Updating &lt;br&gt;Positive Cases&lt;br&gt;&lt;b style=&quot;text-align: right&quot;&gt;&amp;nbsp; &amp;nbsp; &amp;nbsp; &amp;nbsp; &amp;nbsp; &amp;nbsp; &amp;nbsp; &amp;nbsp; &amp;nbsp;0.5.4&lt;/b&gt;" style="ellipse;whiteSpace=wrap;html=1;" vertex="1" parent="1">
          <mxGeometry x="680" y="640" width="120" height="80" as="geometry" />
        </mxCell>
        <mxCell id="VbJh9CMP3E0E9dF7GqX6-61" value="" style="endArrow=classic;html=1;exitX=0;exitY=0.5;exitDx=0;exitDy=0;entryX=0.75;entryY=1;entryDx=0;entryDy=0;" edge="1" parent="1" source="VbJh9CMP3E0E9dF7GqX6-59" target="VbJh9CMP3E0E9dF7GqX6-13">
          <mxGeometry width="50" height="50" relative="1" as="geometry">
            <mxPoint x="390" y="710" as="sourcePoint" />
            <mxPoint x="440" y="660" as="targetPoint" />
          </mxGeometry>
        </mxCell>
        <mxCell id="VbJh9CMP3E0E9dF7GqX6-62" value="" style="endArrow=classic;html=1;exitX=0;exitY=0.5;exitDx=0;exitDy=0;" edge="1" parent="1" source="VbJh9CMP3E0E9dF7GqX6-48">
          <mxGeometry width="50" height="50" relative="1" as="geometry">
            <mxPoint x="300" y="390" as="sourcePoint" />
            <mxPoint x="200" y="400" as="targetPoint" />
          </mxGeometry>
        </mxCell>
        <mxCell id="VbJh9CMP3E0E9dF7GqX6-63" value="Send Notifications" style="text;html=1;strokeColor=none;fillColor=none;align=center;verticalAlign=middle;whiteSpace=wrap;rounded=0;" vertex="1" parent="1">
          <mxGeometry x="210" y="460" width="90" height="20" as="geometry" />
        </mxCell>
      </root>
    </mxGraphModel>
  </diagram>
</mxfile>
